<svg xmlns="http://www.w3.org/2000/svg" xmlns:xlink="http://www.w3.org/1999/xlink" xmlns:lucid="lucid" width="1000" height="653.2"><g transform="translate(-220 -100)" lucid:page-tab-id="0_0"><path d="M700 200h500v480H700z" stroke="#000" stroke-opacity="0" stroke-width="2" fill="#c1e4f7" fill-opacity=".51"/><path d="M280 200h420v480H280z" stroke="#000" stroke-opacity="0" stroke-width="2" fill="#ffeca9" fill-opacity=".51"/><path d="M240 120h160v40H240z" stroke="#000" stroke-opacity="0" stroke-width="2" fill="#fff" fill-opacity="0"/><use xlink:href="#a" transform="matrix(1,0,0,1,245,125) translate(19.200000000000003 18.15)"/><use xlink:href="#b" transform="matrix(1,0,0,1,245,125) translate(40.85 18.15)"/><use xlink:href="#c" transform="matrix(1,0,0,1,245,125) translate(64.85 18.15)"/><path d="M400 120h160v40H400z" stroke="#000" stroke-opacity="0" stroke-width="2" fill="#fff" fill-opacity="0"/><use xlink:href="#a" transform="matrix(1,0,0,1,405,125) translate(19.200000000000003 18.15)"/><use xlink:href="#d" transform="matrix(1,0,0,1,405,125) translate(40.85 18.15)"/><use xlink:href="#c" transform="matrix(1,0,0,1,405,125) translate(64.85 18.15)"/><path d="M560 120h160v40H560z" stroke="#000" stroke-opacity="0" stroke-width="2" fill="#fff" fill-opacity="0"/><use xlink:href="#e" transform="matrix(1,0,0,1,565,125) translate(34.05 18.15)"/><path d="M400 220h160v60H400z" stroke="#000" stroke-width="2" fill="#fff"/><use xlink:href="#f" transform="matrix(1,0,0,1,405,225) translate(22.549999999999997 30.025)"/><use xlink:href="#g" transform="matrix(1,0,0,1,405,225) translate(60.5 30.025)"/><path d="M480 282v38.5" stroke="#000" stroke-width="2" fill="none"/><path d="M481 282.03h-2V281h2z"/><path d="M480 335.76l-4.64-14.26h9.28z" stroke="#000" stroke-width="2"/><path d="M450 340h60v60c-10.02-10.02-16.26-10.02-20.04-10.02-6 0-13.98 10.02-19.98 10.02-3.72 0-10.02 0-19.98-10.02z" stroke="#000" stroke-width="2" fill="#fff"/><use xlink:href="#h" transform="matrix(1,0,0,1,455,345) translate(10 14.4)"/><use xlink:href="#i" transform="matrix(1,0,0,1,455,345) translate(5.5 36)"/><path d="M380 340h60v60c-10.02-10.02-16.26-10.02-20.04-10.02-6 0-13.98 10.02-19.98 10.02-3.72 0-10.02 0-19.98-10.02z" stroke="#000" stroke-width="2" fill="#fff"/><use xlink:href="#j" transform="matrix(1,0,0,1,385,345) translate(15 14.4)"/><use xlink:href="#k" transform="matrix(1,0,0,1,385,345) translate(10 36)"/><path d="M310 340h60v60c-10.02-10.02-16.26-10.02-20.04-10.02-6 0-13.98 10.02-19.98 10.02-3.72 0-10.02 0-19.98-10.02z" stroke="#000" stroke-width="2" fill="#fff"/><use xlink:href="#l" transform="matrix(1,0,0,1,315,345) translate(15 14.4)"/><use xlink:href="#m" transform="matrix(1,0,0,1,315,345) translate(11 36)"/><path d="M520 340h60v60c-10.02-10.02-16.26-10.02-20.04-10.02-6 0-13.98 10.02-19.98 10.02-3.72 0-10.02 0-19.98-10.02z" stroke="#000" stroke-width="2" fill="#fff"/><use xlink:href="#n" transform="matrix(1,0,0,1,525,345) translate(5 14.4)"/><use xlink:href="#o" transform="matrix(1,0,0,1,525,345) translate(1.5499999999999972 36)"/><path d="M590 340h60v61.92c-10.02-10.34-16.26-10.34-20.04-10.34-6 0-13.98 10.34-19.98 10.34-3.72 0-10.02 0-19.98-10.34z" stroke="#000" stroke-width="2" fill="#fff"/><use xlink:href="#p" transform="matrix(1,0,0,1,595,345) translate(0 14.4)"/><use xlink:href="#q" transform="matrix(1,0,0,1,595,345) translate(4.524999999999999 36)"/><path d="M480 282v18h-70v20.5" stroke="#000" stroke-width="2" fill="none"/><path d="M481 282.03h-2V281h2z"/><path d="M410 335.76l-4.64-14.26h9.28z" stroke="#000" stroke-width="2"/><path d="M480 282v18H340v20.5" stroke="#000" stroke-width="2" fill="none"/><path d="M481 282.03h-2V281h2z"/><path d="M340 335.76l-4.64-14.26h9.28z" stroke="#000" stroke-width="2"/><path d="M480 282v18h70v20.5" stroke="#000" stroke-width="2" fill="none"/><path d="M481 282.03h-2V281h2z"/><path d="M550 335.76l-4.64-14.26h9.28z" stroke="#000" stroke-width="2"/><path d="M480 282v18h140v20.5" stroke="#000" stroke-width="2" fill="none"/><path d="M481 282.03h-2V281h2z"/><path d="M620 335.76l-4.64-14.26h9.28z" stroke="#000" stroke-width="2"/><path d="M393 444h110v60H393z" stroke="#000" stroke-width="2" fill="#fff"/><use xlink:href="#r" transform="matrix(1,0,0,1,398,449) translate(31.700000000000003 17.799999999999997)"/><use xlink:href="#s" transform="matrix(1,0,0,1,398,449) translate(-0.8500000000000085 39.4)"/><path d="M565 444h110v60H565z" stroke="#000" stroke-width="2" fill="#fff"/><use xlink:href="#t" transform="matrix(1,0,0,1,570,449) translate(27.525 17.799999999999997)"/><use xlink:href="#u" transform="matrix(1,0,0,1,570,449) translate(-0.8500000000000085 39.4)"/><path d="M387.5 580h185v81.92c-30.9-13.68-50.13-13.68-61.8-13.68-18.5 0-43.1 13.68-61.6 13.68-11.47 0-30.9 0-61.6-13.68z" stroke="#000" stroke-width="2" fill="#fff"/><use xlink:href="#v" transform="matrix(1,0,0,1,392.5,585) translate(21.049999999999997 21.775)"/><use xlink:href="#w" transform="matrix(1,0,0,1,392.5,585) translate(60.55 43.375)"/><path d="M340 396.85V540h140v20.5" stroke="#000" stroke-width="2" fill="none"/><path d="M341 396.88h-2v-.42l2-1.2z"/><path d="M480 575.76l-4.64-14.26h9.28z" stroke="#000" stroke-width="2"/><path d="M550 396.85V540h-70v20.5" stroke="#000" stroke-width="2" fill="none"/><path d="M551 396.88h-2v-.42l2-1.2z"/><path d="M480 575.76l-4.64-14.26h9.28z" stroke="#000" stroke-width="2"/><path d="M448 506v34h32v20.5" stroke="#000" stroke-width="2" fill="none"/><path d="M449 506.03h-2V505h2z"/><path d="M480 575.76l-4.64-14.26h9.28z" stroke="#000" stroke-width="2"/><path d="M620 506v34H480v20.5" stroke="#000" stroke-width="2" fill="none"/><path d="M621 506.03h-2V505h2z"/><path d="M480 575.76l-4.64-14.26h9.28z" stroke="#000" stroke-width="2"/><path d="M620 398.6v25.9" stroke="#000" stroke-width="2" fill="none"/><path d="M621 398.64h-2v-.4l2-1.25z"/><path d="M620 439.76l-4.64-14.26h9.28z" stroke="#000" stroke-width="2"/><path d="M480 161v39.5" stroke="#000" stroke-width="2" fill="none"/><path d="M481 161.03h-2V160h2z"/><path d="M480 215.76l-4.64-14.26h9.28z" stroke="#000" stroke-width="2"/><path d="M865 540h160v60H865z" stroke="#000" stroke-width="2" fill="#fff"/><use xlink:href="#x" transform="matrix(1,0,0,1,870,545) translate(41.05 17.525)"/><use xlink:href="#y" transform="matrix(1,0,0,1,870,545) translate(38.05 39.125)"/><path d="M720 380.2h110V455H720z" stroke="#000" stroke-width="2" fill="#fff"/><use xlink:href="#z" transform="matrix(1,0,0,1,725,385.20000000000005) translate(15 14.4)"/><use xlink:href="#A" transform="matrix(1,0,0,1,725,385.20000000000005) translate(13.074999999999996 36)"/><use xlink:href="#B" transform="matrix(1,0,0,1,725,385.20000000000005) translate(68.975 36)"/><use xlink:href="#C" transform="matrix(1,0,0,1,725,385.20000000000005) translate(16.049999999999997 57.6)"/><path d="M836 380.2h110V455H836z" stroke="#000" stroke-width="2" fill="#fff"/><use xlink:href="#D" transform="matrix(1,0,0,1,841,385.2) translate(27.200000000000003 14.4)"/><use xlink:href="#E" transform="matrix(1,0,0,1,841,385.2) translate(9.099999999999994 36)"/><use xlink:href="#C" transform="matrix(1,0,0,1,841,385.2) translate(16.049999999999997 57.6)"/><path d="M952 380.6h110v74.8H952z" stroke="#000" stroke-width="2" fill="#fff"/><use xlink:href="#F" transform="matrix(1,0,0,1,957,385.6) translate(31.049999999999997 24.55625)"/><use xlink:href="#C" transform="matrix(1,0,0,1,957,385.6) translate(16.049999999999997 46.15625)"/><path d="M1068 380.6h110v74.8h-110z" stroke="#000" stroke-width="2" fill="#fff"/><use xlink:href="#t" transform="matrix(1,0,0,1,1073,385.6) translate(27.525 24.55625)"/><use xlink:href="#C" transform="matrix(1,0,0,1,1073,385.6) translate(16.049999999999997 46.15625)"/><path d="M852.5 220h185v81.92c-30.9-13.68-50.13-13.68-61.8-13.68-18.5 0-43.1 13.68-61.6 13.68-11.47 0-30.9 0-61.6-13.68z" stroke="#000" stroke-width="2" fill="#fff"/><use xlink:href="#G" transform="matrix(1,0,0,1,857.5,225) translate(49.55 21.775)"/><use xlink:href="#w" transform="matrix(1,0,0,1,857.5,225) translate(60.55 43.375)"/><path d="M945 538v-40.5H775v-23" stroke="#000" stroke-width="2" fill="none"/><path d="M946 539h-2v-1.03h2z"/><path d="M775 459.24l4.64 14.26h-9.28z" stroke="#000" stroke-width="2"/><path d="M945 538v-40.5h-54v-23" stroke="#000" stroke-width="2" fill="none"/><path d="M946 539h-2v-1.03h2z"/><path d="M891 459.24l4.64 14.26h-9.28z" stroke="#000" stroke-width="2"/><path d="M945 538v-40.3h62v-22.8" stroke="#000" stroke-width="2" fill="none"/><path d="M946 539h-2v-1.03h2z"/><path d="M1007 459.64l4.64 14.26h-9.28z" stroke="#000" stroke-width="2"/><path d="M945 538v-40.3h178v-22.8" stroke="#000" stroke-width="2" fill="none"/><path d="M946 539h-2v-1.03h2z"/><path d="M1123 459.64l4.64 14.26h-9.28z" stroke="#000" stroke-width="2"/><path d="M775 378.2v-40.68h170v-23.17" stroke="#000" stroke-width="2" fill="none"/><path d="M776 379.2h-2v-1.03h2z"/><path d="M945 299.08l4.64 14.27h-9.28z" stroke="#000" stroke-width="2"/><path d="M891 378.2v-40.68h54v-23.17" stroke="#000" stroke-width="2" fill="none"/><path d="M892 379.2h-2v-1.03h2z"/><path d="M945 299.08l4.64 14.27h-9.28z" stroke="#000" stroke-width="2"/><path d="M1007 378.6v-40.88h-62v-23.37" stroke="#000" stroke-width="2" fill="none"/><path d="M1008 379.6h-2v-1.03h2z"/><path d="M945 299.08l4.64 14.27h-9.28z" stroke="#000" stroke-width="2"/><path d="M1123 378.6v-40.88H945v-23.37" stroke="#000" stroke-width="2" fill="none"/><path d="M1124 379.6h-2v-1.03h2z"/><path d="M945 299.08l4.64 14.27h-9.28z" stroke="#000" stroke-width="2"/><path d="M480 656.85V670h465v-50.5" stroke="#000" stroke-width="2" fill="none"/><path d="M481 656.87h-2v-.74l2-.56z"/><path d="M945 604.24l4.64 14.26h-9.28z" stroke="#000" stroke-width="2"/><path d="M320 161v19h160v20.5" stroke="#000" stroke-width="2" fill="none"/><path d="M321 161.03h-2V160h2z"/><path d="M480 215.76l-4.64-14.26h9.28z" stroke="#000" stroke-width="2"/><path d="M640 161v19H480v20.5" stroke="#000" stroke-width="2" fill="none"/><path d="M641 161.03h-2V160h2z"/><path d="M480 215.76l-4.64-14.26h9.28z" stroke="#000" stroke-width="2"/><path d="M865 120h160v40H865z" stroke="#000" stroke-opacity="0" stroke-width="2" fill="#fff" fill-opacity="0"/><g><use xlink:href="#H" transform="matrix(1,0,0,1,870,125) translate(26.549999999999997 18.15)"/><use xlink:href="#I" transform="matrix(1,0,0,1,870,125) translate(72.55 18.15)"/></g><path d="M945 218v-39.5" stroke="#000" stroke-width="2" fill="none"/><path d="M946 219h-2v-1.03h2z"/><path d="M945 163.24l4.64 14.26h-9.28z" stroke="#000" stroke-width="2"/><path d="M400 680h160v40H400z" stroke="#000" stroke-opacity="0" stroke-width="2" fill="#fff" fill-opacity="0"/><g><use xlink:href="#J" transform="matrix(1,0,0,1,405,685) translate(8.549999999999997 18.15)"/></g><path d="M865 680h160v53.2H865z" stroke="#000" stroke-opacity="0" stroke-width="2" fill="#fff" fill-opacity="0"/><g><use xlink:href="#K" transform="matrix(1,0,0,1,870,685) translate(26.449999999999996 14.4)"/><use xlink:href="#L" transform="matrix(1,0,0,1,870,685) translate(31.1 36)"/></g><path d="M410 396.85v22.58h38v5.07" stroke="#000" stroke-width="2" fill="none"/><path d="M411 396.88h-2v-.42l2-1.2z"/><path d="M448 439.76l-4.64-14.26h9.28z" stroke="#000" stroke-width="2"/><path d="M480 396.85v22.58h-32v5.07" stroke="#000" stroke-width="2" fill="none"/><path d="M481 396.88h-2v-.42l2-1.2z"/><path d="M448 439.76l-4.64-14.26h9.28z" stroke="#000" stroke-width="2"/><defs><path d="M33 0v-248h34V0H33" id="M"/><path d="M30-248c87 1 191-15 191 75 0 78-77 80-158 76V0H30v-248zm33 125c57 0 124 11 124-50 0-59-68-47-124-48v98" id="N"/><g id="a"><use transform="matrix(0.05,0,0,0.05,0,0)" xlink:href="#M"/><use transform="matrix(0.05,0,0,0.05,5,0)" xlink:href="#N"/></g><path d="M108 0H70L1-190h34L89-25l56-165h34" id="O"/><path d="M155-56V0h-30v-56H8v-25l114-167h33v167h35v25h-35zm-30-156c-27 46-58 90-88 131h88v-131" id="P"/><g id="b"><use transform="matrix(0.05,0,0,0.05,0,0)" xlink:href="#O"/><use transform="matrix(0.05,0,0,0.05,9,0)" xlink:href="#P"/></g><path d="M205 0l-28-72H64L36 0H1l101-248h38L239 0h-34zm-38-99l-47-123c-12 45-31 82-46 123h93" id="Q"/><path d="M85-194c31 0 48 13 60 33l-1-100h32l1 261h-30c-2-10 0-23-3-31C134-8 116 4 85 4 32 4 16-35 15-94c0-66 23-100 70-100zm9 24c-40 0-46 34-46 75 0 40 6 74 45 74 42 0 51-32 51-76 0-42-9-74-50-73" id="R"/><path d="M114-163C36-179 61-72 57 0H25l-1-190h30c1 12-1 29 2 39 6-27 23-49 58-41v29" id="S"/><path d="M100-194c63 0 86 42 84 106H49c0 40 14 67 53 68 26 1 43-12 49-29l28 8c-11 28-37 45-77 45C44 4 14-33 15-96c1-61 26-98 85-98zm52 81c6-60-76-77-97-28-3 7-6 17-6 28h103" id="T"/><path d="M135-143c-3-34-86-38-87 0 15 53 115 12 119 90S17 21 10-45l28-5c4 36 97 45 98 0-10-56-113-15-118-90-4-57 82-63 122-42 12 7 21 19 24 35" id="U"/><g id="c"><use transform="matrix(0.05,0,0,0.05,0,0)" xlink:href="#Q"/><use transform="matrix(0.05,0,0,0.05,12,0)" xlink:href="#R"/><use transform="matrix(0.05,0,0,0.05,22,0)" xlink:href="#R"/><use transform="matrix(0.05,0,0,0.05,32,0)" xlink:href="#S"/><use transform="matrix(0.05,0,0,0.05,37.95,0)" xlink:href="#T"/><use transform="matrix(0.05,0,0,0.05,47.95,0)" xlink:href="#U"/><use transform="matrix(0.05,0,0,0.05,56.95,0)" xlink:href="#U"/></g><path d="M110-160c48 1 74 30 74 79 0 53-28 85-80 85-65 0-83-55-86-122-5-90 50-162 133-122 14 7 22 21 27 39l-31 6c-5-40-67-38-82-6-9 19-15 44-15 74 11-20 30-34 60-33zm-7 138c34 0 49-23 49-58s-16-56-50-56c-29 0-50 16-49 49 1 36 15 65 50 65" id="V"/><g id="d"><use transform="matrix(0.05,0,0,0.05,0,0)" xlink:href="#O"/><use transform="matrix(0.05,0,0,0.05,9,0)" xlink:href="#V"/></g><path d="M197 0v-115H63V0H30v-248h33v105h134v-105h34V0h-34" id="W"/><path d="M100-194c62-1 85 37 85 99 1 63-27 99-86 99S16-35 15-95c0-66 28-99 85-99zM99-20c44 1 53-31 53-75 0-43-8-75-51-75s-53 32-53 75 10 74 51 75" id="X"/><path d="M59-47c-2 24 18 29 38 22v24C64 9 27 4 27-40v-127H5v-23h24l9-43h21v43h35v23H59v120" id="Y"/><path d="M117-194c89-4 53 116 60 194h-32v-121c0-31-8-49-39-48C34-167 62-67 57 0H25l-1-190h30c1 10-1 24 2 32 11-22 29-35 61-36" id="Z"/><path d="M141-36C126-15 110 5 73 4 37 3 15-17 15-53c-1-64 63-63 125-63 3-35-9-54-41-54-24 1-41 7-42 31l-33-3c5-37 33-52 76-52 45 0 72 20 72 64v82c-1 20 7 32 28 27v20c-31 9-61-2-59-35zM48-53c0 20 12 33 32 33 41-3 63-29 60-74-43 2-92-5-92 41" id="aa"/><path d="M210-169c-67 3-38 105-44 169h-31v-121c0-29-5-50-35-48C34-165 62-65 56 0H25l-1-190h30c1 10-1 24 2 32 10-44 99-50 107 0 11-21 27-35 58-36 85-2 47 119 55 194h-31v-121c0-29-5-49-35-48" id="ab"/><g id="e"><use transform="matrix(0.05,0,0,0.05,0,0)" xlink:href="#W"/><use transform="matrix(0.05,0,0,0.05,12.950000000000001,0)" xlink:href="#X"/><use transform="matrix(0.05,0,0,0.05,22.950000000000003,0)" xlink:href="#U"/><use transform="matrix(0.05,0,0,0.05,31.950000000000003,0)" xlink:href="#Y"/><use transform="matrix(0.05,0,0,0.05,36.95,0)" xlink:href="#Z"/><use transform="matrix(0.05,0,0,0.05,46.95,0)" xlink:href="#aa"/><use transform="matrix(0.05,0,0,0.05,56.95,0)" xlink:href="#ab"/><use transform="matrix(0.05,0,0,0.05,71.9,0)" xlink:href="#T"/></g><g id="f"><use transform="matrix(0.05,0,0,0.05,0,0)" xlink:href="#N"/><use transform="matrix(0.05,0,0,0.05,12,0)" xlink:href="#X"/><use transform="matrix(0.05,0,0,0.05,22,0)" xlink:href="#S"/><use transform="matrix(0.05,0,0,0.05,27.950000000000003,0)" xlink:href="#Y"/></g><path d="M185-189c-5-48-123-54-124 2 14 75 158 14 163 119 3 78-121 87-175 55-17-10-28-26-33-46l33-7c5 56 141 63 141-1 0-78-155-14-162-118-5-82 145-84 179-34 5 7 8 16 11 25" id="ac"/><path d="M96-169c-40 0-48 33-48 73s9 75 48 75c24 0 41-14 43-38l32 2c-6 37-31 61-74 61-59 0-76-41-82-99-10-93 101-131 147-64 4 7 5 14 7 22l-32 3c-4-21-16-35-41-35" id="ad"/><g id="g"><use transform="matrix(0.05,0,0,0.05,0,0)" xlink:href="#ac"/><use transform="matrix(0.05,0,0,0.05,12,0)" xlink:href="#ad"/><use transform="matrix(0.05,0,0,0.05,21,0)" xlink:href="#aa"/><use transform="matrix(0.05,0,0,0.05,31,0)" xlink:href="#Z"/><use transform="matrix(0.05,0,0,0.05,41,0)" xlink:href="#Z"/><use transform="matrix(0.05,0,0,0.05,51,0)" xlink:href="#T"/><use transform="matrix(0.05,0,0,0.05,61,0)" xlink:href="#S"/></g><path d="M126-127c33 6 58 20 58 59 0 88-139 92-164 29-3-8-5-16-6-25l32-3c6 27 21 44 54 44 32 0 52-15 52-46 0-38-36-46-79-43v-28c39 1 72-4 72-42 0-27-17-43-46-43-28 0-47 15-49 41l-32-3c6-42 35-63 81-64 48-1 79 21 79 65 0 36-21 52-52 59" id="ae"/><g id="h"><use transform="matrix(0.05,0,0,0.05,0,0)" xlink:href="#P"/><use transform="matrix(0.05,0,0,0.05,10,0)" xlink:href="#P"/><use transform="matrix(0.05,0,0,0.05,20,0)" xlink:href="#ae"/></g><path d="M106-169C34-169 62-67 57 0H25v-261h32l-1 103c12-21 28-36 61-36 89 0 53 116 60 194h-32v-121c2-32-8-49-39-48" id="af"/><path d="M115-194c55 1 70 41 70 98S169 2 115 4C84 4 66-9 55-30l1 105H24l-1-265h31l2 30c10-21 28-34 59-34zm-8 174c40 0 45-34 45-75s-6-73-45-74c-42 0-51 32-51 76 0 43 10 73 51 73" id="ag"/><g id="i"><use transform="matrix(0.05,0,0,0.05,0,0)" xlink:href="#af"/><use transform="matrix(0.05,0,0,0.05,10,0)" xlink:href="#Y"/><use transform="matrix(0.05,0,0,0.05,15,0)" xlink:href="#Y"/><use transform="matrix(0.05,0,0,0.05,20,0)" xlink:href="#ag"/><use transform="matrix(0.05,0,0,0.05,30,0)" xlink:href="#U"/></g><path d="M134-131c28 9 52 24 51 62-1 50-34 73-85 73S17-19 16-69c0-36 21-54 49-61-75-25-45-126 34-121 46 3 78 18 79 63 0 33-17 51-44 57zm-34-11c31 1 46-15 46-44 0-28-17-43-47-42-29 0-46 13-45 42 1 28 16 44 46 44zm1 122c35 0 51-18 51-52 0-30-18-46-53-46-33 0-51 17-51 47 0 34 19 51 53 51" id="ah"/><path d="M101-251c68 0 85 55 85 127S166 4 100 4C33 4 14-52 14-124c0-73 17-127 87-127zm-1 229c47 0 54-49 54-102s-4-102-53-102c-51 0-55 48-55 102 0 53 5 102 54 102" id="ai"/><g id="j"><use transform="matrix(0.05,0,0,0.05,0,0)" xlink:href="#ah"/><use transform="matrix(0.05,0,0,0.05,10,0)" xlink:href="#ai"/></g><g id="k"><use transform="matrix(0.05,0,0,0.05,0,0)" xlink:href="#af"/><use transform="matrix(0.05,0,0,0.05,10,0)" xlink:href="#Y"/><use transform="matrix(0.05,0,0,0.05,15,0)" xlink:href="#Y"/><use transform="matrix(0.05,0,0,0.05,20,0)" xlink:href="#ag"/></g><path d="M101-251c82-7 93 87 43 132L82-64C71-53 59-42 53-27h129V0H18c2-99 128-94 128-182 0-28-16-43-45-43s-46 15-49 41l-32-3c6-41 34-60 81-64" id="aj"/><g id="l"><use transform="matrix(0.05,0,0,0.05,0,0)" xlink:href="#aj"/><use transform="matrix(0.05,0,0,0.05,10,0)" xlink:href="#aj"/></g><g id="m"><use transform="matrix(0.05,0,0,0.05,0,0)" xlink:href="#U"/><use transform="matrix(0.05,0,0,0.05,9,0)" xlink:href="#U"/><use transform="matrix(0.05,0,0,0.05,18,0)" xlink:href="#af"/></g><g id="n"><use transform="matrix(0.05,0,0,0.05,0,0)" xlink:href="#ae"/><use transform="matrix(0.05,0,0,0.05,10,0)" xlink:href="#ae"/><use transform="matrix(0.05,0,0,0.05,20,0)" xlink:href="#ai"/><use transform="matrix(0.05,0,0,0.05,30,0)" xlink:href="#V"/></g><path d="M179-190L93 31C79 59 56 82 12 73V49c39 6 53-20 64-50L1-190h34L92-34l54-156h33" id="ak"/><path d="M145-31C134-9 116 4 85 4 32 4 16-35 15-94c0-59 17-99 70-100 32-1 48 14 60 33 0-11-1-24 2-32h30l-1 268h-32zM93-21c41 0 51-33 51-76s-8-73-50-73c-40 0-46 35-46 75s5 74 45 74" id="al"/><path d="M24 0v-261h32V0H24" id="am"/><g id="o"><use transform="matrix(0.05,0,0,0.05,0,0)" xlink:href="#ab"/><use transform="matrix(0.05,0,0,0.05,14.950000000000001,0)" xlink:href="#ak"/><use transform="matrix(0.05,0,0,0.05,23.950000000000003,0)" xlink:href="#U"/><use transform="matrix(0.05,0,0,0.05,32.95,0)" xlink:href="#al"/><use transform="matrix(0.05,0,0,0.05,42.95,0)" xlink:href="#am"/></g><path d="M27 0v-27h64v-190l-56 39v-29l58-41h29v221h61V0H27" id="an"/><path d="M54-142c48-35 137-8 131 61C196 18 31 33 14-55l32-4c7 23 22 37 52 37 35-1 51-22 54-58 4-55-73-65-99-34H22l8-134h141v27H59" id="ao"/><g id="p"><use transform="matrix(0.05,0,0,0.05,0,0)" xlink:href="#an"/><use transform="matrix(0.05,0,0,0.05,10,0)" xlink:href="#aj"/><use transform="matrix(0.05,0,0,0.05,20,0)" xlink:href="#ae"/><use transform="matrix(0.05,0,0,0.05,30,0)" xlink:href="#P"/><use transform="matrix(0.05,0,0,0.05,40,0)" xlink:href="#ao"/></g><g id="q"><use transform="matrix(0.05,0,0,0.05,0,0)" xlink:href="#X"/><use transform="matrix(0.05,0,0,0.05,10,0)" xlink:href="#Y"/><use transform="matrix(0.05,0,0,0.05,15,0)" xlink:href="#af"/><use transform="matrix(0.05,0,0,0.05,25,0)" xlink:href="#T"/><use transform="matrix(0.05,0,0,0.05,35,0)" xlink:href="#S"/></g><path d="M266 0h-40l-56-210L115 0H75L2-248h35L96-30l15-64 43-154h32l59 218 59-218h35" id="ap"/><path d="M115-194c53 0 69 39 70 98 0 66-23 100-70 100C84 3 66-7 56-30L54 0H23l1-261h32v101c10-23 28-34 59-34zm-8 174c40 0 45-34 45-75 0-40-5-75-45-74-42 0-51 32-51 76 0 43 10 73 51 73" id="aq"/><g id="r"><use transform="matrix(0.05,0,0,0.05,0,0)" xlink:href="#ap"/><use transform="matrix(0.05,0,0,0.05,16.599999999999998,0)" xlink:href="#T"/><use transform="matrix(0.05,0,0,0.05,26.599999999999994,0)" xlink:href="#aq"/></g><path d="M63-220v92h138v28H63V0H30v-248h175v28H63" id="ar"/><path d="M24-231v-30h32v30H24zM24 0v-190h32V0H24" id="as"/><path d="M177-190C167-65 218 103 67 71c-23-6-38-20-44-43l32-5c15 47 100 32 89-28v-30C133-14 115 1 83 1 29 1 15-40 15-95c0-56 16-97 71-98 29-1 48 16 59 35 1-10 0-23 2-32h30zM94-22c36 0 50-32 50-73 0-42-14-75-50-75-39 0-46 34-46 75s6 73 46 73" id="at"/><g id="s"><use transform="matrix(0.05,0,0,0.05,0,0)" xlink:href="#ar"/><use transform="matrix(0.05,0,0,0.05,10.950000000000001,0)" xlink:href="#as"/><use transform="matrix(0.05,0,0,0.05,14.9,0)" xlink:href="#Z"/><use transform="matrix(0.05,0,0,0.05,24.900000000000002,0)" xlink:href="#at"/><use transform="matrix(0.05,0,0,0.05,34.900000000000006,0)" xlink:href="#T"/><use transform="matrix(0.05,0,0,0.05,44.900000000000006,0)" xlink:href="#S"/><use transform="matrix(0.05,0,0,0.05,50.85000000000001,0)" xlink:href="#ag"/><use transform="matrix(0.05,0,0,0.05,60.85,0)" xlink:href="#S"/><use transform="matrix(0.05,0,0,0.05,66.80000000000001,0)" xlink:href="#as"/><use transform="matrix(0.05,0,0,0.05,70.75000000000001,0)" xlink:href="#Z"/><use transform="matrix(0.05,0,0,0.05,80.75000000000001,0)" xlink:href="#Y"/><use transform="matrix(0.05,0,0,0.05,85.75000000000001,0)" xlink:href="#T"/><use transform="matrix(0.05,0,0,0.05,95.75000000000001,0)" xlink:href="#S"/></g><path d="M140-251c81 0 123 46 123 126C263-46 219 4 140 4 59 4 17-45 17-125s42-126 123-126zm0 227c63 0 89-41 89-101s-29-99-89-99c-61 0-89 39-89 99S79-25 140-24" id="au"/><g id="t"><use transform="matrix(0.05,0,0,0.05,0,0)" xlink:href="#au"/><use transform="matrix(0.05,0,0,0.05,14,0)" xlink:href="#Y"/><use transform="matrix(0.05,0,0,0.05,19,0)" xlink:href="#af"/><use transform="matrix(0.05,0,0,0.05,29,0)" xlink:href="#T"/><use transform="matrix(0.05,0,0,0.05,39,0)" xlink:href="#S"/></g><g id="u"><use transform="matrix(0.05,0,0,0.05,0,0)" xlink:href="#ar"/><use transform="matrix(0.05,0,0,0.05,10.950000000000001,0)" xlink:href="#as"/><use transform="matrix(0.05,0,0,0.05,14.9,0)" xlink:href="#Z"/><use transform="matrix(0.05,0,0,0.05,24.900000000000002,0)" xlink:href="#at"/><use transform="matrix(0.05,0,0,0.05,34.900000000000006,0)" xlink:href="#T"/><use transform="matrix(0.05,0,0,0.05,44.900000000000006,0)" xlink:href="#S"/><use transform="matrix(0.05,0,0,0.05,50.85000000000001,0)" xlink:href="#ag"/><use transform="matrix(0.05,0,0,0.05,60.85,0)" xlink:href="#S"/><use transform="matrix(0.05,0,0,0.05,66.80000000000001,0)" xlink:href="#as"/><use transform="matrix(0.05,0,0,0.05,70.75000000000001,0)" xlink:href="#Z"/><use transform="matrix(0.05,0,0,0.05,80.75000000000001,0)" xlink:href="#Y"/><use transform="matrix(0.05,0,0,0.05,85.75000000000001,0)" xlink:href="#T"/><use transform="matrix(0.05,0,0,0.05,95.75000000000001,0)" xlink:href="#S"/></g><path d="M233-177c-1 41-23 64-60 70L243 0h-38l-65-103H63V0H30v-248c88 3 205-21 203 71zM63-129c60-2 137 13 137-47 0-61-80-42-137-45v92" id="av"/><g id="v"><use transform="matrix(0.05,0,0,0.05,0,0)" xlink:href="#av"/><use transform="matrix(0.05,0,0,0.05,12.950000000000001,0)" xlink:href="#T"/><use transform="matrix(0.05,0,0,0.05,22.950000000000003,0)" xlink:href="#ad"/><use transform="matrix(0.05,0,0,0.05,31.950000000000003,0)" xlink:href="#X"/><use transform="matrix(0.05,0,0,0.05,41.95,0)" xlink:href="#Z"/><use transform="matrix(0.05,0,0,0.05,51.95,0)" xlink:href="#Z"/><use transform="matrix(0.05,0,0,0.05,61.95,0)" xlink:href="#aa"/><use transform="matrix(0.05,0,0,0.05,71.95,0)" xlink:href="#as"/><use transform="matrix(0.05,0,0,0.05,75.9,0)" xlink:href="#U"/><use transform="matrix(0.05,0,0,0.05,84.9,0)" xlink:href="#U"/><use transform="matrix(0.05,0,0,0.05,93.9,0)" xlink:href="#aa"/><use transform="matrix(0.05,0,0,0.05,103.9,0)" xlink:href="#Z"/><use transform="matrix(0.05,0,0,0.05,113.9,0)" xlink:href="#ad"/><use transform="matrix(0.05,0,0,0.05,122.9,0)" xlink:href="#T"/></g><g id="w"><use transform="matrix(0.05,0,0,0.05,0,0)" xlink:href="#av"/><use transform="matrix(0.05,0,0,0.05,12.950000000000001,0)" xlink:href="#T"/><use transform="matrix(0.05,0,0,0.05,22.950000000000003,0)" xlink:href="#ag"/><use transform="matrix(0.05,0,0,0.05,32.95,0)" xlink:href="#X"/><use transform="matrix(0.05,0,0,0.05,42.95,0)" xlink:href="#S"/><use transform="matrix(0.05,0,0,0.05,48.900000000000006,0)" xlink:href="#Y"/></g><path d="M30-248c118-7 216 8 213 122C240-48 200 0 122 0H30v-248zM63-27c89 8 146-16 146-99s-60-101-146-95v194" id="aw"/><g id="x"><use transform="matrix(0.05,0,0,0.05,0,0)" xlink:href="#aw"/><use transform="matrix(0.05,0,0,0.05,12.950000000000001,0)" xlink:href="#T"/><use transform="matrix(0.05,0,0,0.05,22.950000000000003,0)" xlink:href="#Y"/><use transform="matrix(0.05,0,0,0.05,27.950000000000003,0)" xlink:href="#T"/><use transform="matrix(0.05,0,0,0.05,37.95,0)" xlink:href="#ad"/><use transform="matrix(0.05,0,0,0.05,46.95,0)" xlink:href="#Y"/><use transform="matrix(0.05,0,0,0.05,51.95,0)" xlink:href="#X"/><use transform="matrix(0.05,0,0,0.05,61.95,0)" xlink:href="#S"/></g><g id="y"><use transform="matrix(0.05,0,0,0.05,0,0)" xlink:href="#ac"/><use transform="matrix(0.05,0,0,0.05,12,0)" xlink:href="#T"/><use transform="matrix(0.05,0,0,0.05,22,0)" xlink:href="#am"/><use transform="matrix(0.05,0,0,0.05,25.950000000000003,0)" xlink:href="#T"/><use transform="matrix(0.05,0,0,0.05,35.95,0)" xlink:href="#ad"/><use transform="matrix(0.05,0,0,0.05,44.95,0)" xlink:href="#Y"/><use transform="matrix(0.05,0,0,0.05,49.95,0)" xlink:href="#as"/><use transform="matrix(0.05,0,0,0.05,53.900000000000006,0)" xlink:href="#X"/><use transform="matrix(0.05,0,0,0.05,63.900000000000006,0)" xlink:href="#Z"/></g><path d="M30 0v-248h187v28H63v79h144v27H63v87h162V0H30" id="ax"/><path d="M141 0L90-78 38 0H4l68-98-65-92h35l48 74 47-74h35l-64 92 68 98h-35" id="ay"/><g id="z"><use transform="matrix(0.05,0,0,0.05,0,0)" xlink:href="#ax"/><use transform="matrix(0.05,0,0,0.05,12,0)" xlink:href="#ay"/><use transform="matrix(0.05,0,0,0.05,21,0)" xlink:href="#ag"/><use transform="matrix(0.05,0,0,0.05,31,0)" xlink:href="#X"/><use transform="matrix(0.05,0,0,0.05,41,0)" xlink:href="#U"/><use transform="matrix(0.05,0,0,0.05,50,0)" xlink:href="#T"/><use transform="matrix(0.05,0,0,0.05,60,0)" xlink:href="#R"/></g><g id="A"><use transform="matrix(0.05,0,0,0.05,0,0)" xlink:href="#Q"/><use transform="matrix(0.05,0,0,0.05,12,0)" xlink:href="#R"/><use transform="matrix(0.05,0,0,0.05,22,0)" xlink:href="#ab"/><use transform="matrix(0.05,0,0,0.05,36.95,0)" xlink:href="#as"/><use transform="matrix(0.05,0,0,0.05,40.900000000000006,0)" xlink:href="#Z"/></g><path d="M232-93c-1 65-40 97-104 97C67 4 28-28 28-90v-158h33c8 89-33 224 67 224 102 0 64-133 71-224h33v155" id="az"/><g id="B"><use transform="matrix(0.05,0,0,0.05,0,0)" xlink:href="#az"/><use transform="matrix(0.05,0,0,0.05,12.950000000000001,0)" xlink:href="#M"/></g><g id="C"><use transform="matrix(0.05,0,0,0.05,0,0)" xlink:href="#aw"/><use transform="matrix(0.05,0,0,0.05,12.950000000000001,0)" xlink:href="#T"/><use transform="matrix(0.05,0,0,0.05,22.950000000000003,0)" xlink:href="#Y"/><use transform="matrix(0.05,0,0,0.05,27.950000000000003,0)" xlink:href="#T"/><use transform="matrix(0.05,0,0,0.05,37.95,0)" xlink:href="#ad"/><use transform="matrix(0.05,0,0,0.05,46.95,0)" xlink:href="#Y"/><use transform="matrix(0.05,0,0,0.05,51.95,0)" xlink:href="#X"/><use transform="matrix(0.05,0,0,0.05,61.95,0)" xlink:href="#S"/></g><path d="M143 0L79-87 56-68V0H24v-261h32v163l83-92h37l-77 82L181 0h-38" id="aA"/><g id="D"><use transform="matrix(0.05,0,0,0.05,0,0)" xlink:href="#ap"/><use transform="matrix(0.05,0,0,0.05,16.599999999999998,0)" xlink:href="#T"/><use transform="matrix(0.05,0,0,0.05,26.599999999999994,0)" xlink:href="#aa"/><use transform="matrix(0.05,0,0,0.05,36.599999999999994,0)" xlink:href="#aA"/></g><path d="M212-179c-10-28-35-45-73-45-59 0-87 40-87 99 0 60 29 101 89 101 43 0 62-24 78-52l27 14C228-24 195 4 139 4 59 4 22-46 18-125c-6-104 99-153 187-111 19 9 31 26 39 46" id="aB"/><g id="E"><use transform="matrix(0.05,0,0,0.05,0,0)" xlink:href="#aB"/><use transform="matrix(0.05,0,0,0.05,12.950000000000001,0)" xlink:href="#S"/><use transform="matrix(0.05,0,0,0.05,18.900000000000002,0)" xlink:href="#T"/><use transform="matrix(0.05,0,0,0.05,28.900000000000002,0)" xlink:href="#R"/><use transform="matrix(0.05,0,0,0.05,38.900000000000006,0)" xlink:href="#T"/><use transform="matrix(0.05,0,0,0.05,48.900000000000006,0)" xlink:href="#Z"/><use transform="matrix(0.05,0,0,0.05,58.900000000000006,0)" xlink:href="#Y"/><use transform="matrix(0.05,0,0,0.05,63.900000000000006,0)" xlink:href="#as"/><use transform="matrix(0.05,0,0,0.05,67.85000000000001,0)" xlink:href="#aa"/><use transform="matrix(0.05,0,0,0.05,77.85000000000001,0)" xlink:href="#am"/></g><g id="F"><use transform="matrix(0.05,0,0,0.05,0,0)" xlink:href="#av"/><use transform="matrix(0.05,0,0,0.05,12.950000000000001,0)" xlink:href="#aB"/><use transform="matrix(0.05,0,0,0.05,25.900000000000002,0)" xlink:href="#ax"/></g><g id="G"><use transform="matrix(0.05,0,0,0.05,0,0)" xlink:href="#aw"/><use transform="matrix(0.05,0,0,0.05,12.950000000000001,0)" xlink:href="#T"/><use transform="matrix(0.05,0,0,0.05,22.950000000000003,0)" xlink:href="#Y"/><use transform="matrix(0.05,0,0,0.05,27.950000000000003,0)" xlink:href="#T"/><use transform="matrix(0.05,0,0,0.05,37.95,0)" xlink:href="#ad"/><use transform="matrix(0.05,0,0,0.05,46.95,0)" xlink:href="#Y"/><use transform="matrix(0.05,0,0,0.05,51.95,0)" xlink:href="#as"/><use transform="matrix(0.05,0,0,0.05,55.900000000000006,0)" xlink:href="#X"/><use transform="matrix(0.05,0,0,0.05,65.9,0)" xlink:href="#Z"/></g><g id="H"><use transform="matrix(0.05,0,0,0.05,0,0)" xlink:href="#ac"/><use transform="matrix(0.05,0,0,0.05,12,0)" xlink:href="#ad"/><use transform="matrix(0.05,0,0,0.05,21,0)" xlink:href="#aa"/><use transform="matrix(0.05,0,0,0.05,31,0)" xlink:href="#Z"/></g><path d="M84 4C-5 8 30-112 23-190h32v120c0 31 7 50 39 49 72-2 45-101 50-169h31l1 190h-30c-1-10 1-25-2-33-11 22-28 36-60 37" id="aC"/><g id="I"><use transform="matrix(0.05,0,0,0.05,0,0)" xlink:href="#av"/><use transform="matrix(0.05,0,0,0.05,12.950000000000001,0)" xlink:href="#T"/><use transform="matrix(0.05,0,0,0.05,22.950000000000003,0)" xlink:href="#U"/><use transform="matrix(0.05,0,0,0.05,31.950000000000003,0)" xlink:href="#aC"/><use transform="matrix(0.05,0,0,0.05,41.95,0)" xlink:href="#am"/><use transform="matrix(0.05,0,0,0.05,45.900000000000006,0)" xlink:href="#Y"/></g><g id="J"><use transform="matrix(0.05,0,0,0.05,0,0)" xlink:href="#av"/><use transform="matrix(0.05,0,0,0.05,12.950000000000001,0)" xlink:href="#T"/><use transform="matrix(0.05,0,0,0.05,22.950000000000003,0)" xlink:href="#ad"/><use transform="matrix(0.05,0,0,0.05,31.950000000000003,0)" xlink:href="#X"/><use transform="matrix(0.05,0,0,0.05,41.95,0)" xlink:href="#Z"/><use transform="matrix(0.05,0,0,0.05,51.95,0)" xlink:href="#Z"/><use transform="matrix(0.05,0,0,0.05,61.95,0)" xlink:href="#aa"/><use transform="matrix(0.05,0,0,0.05,71.95,0)" xlink:href="#as"/><use transform="matrix(0.05,0,0,0.05,75.9,0)" xlink:href="#U"/><use transform="matrix(0.05,0,0,0.05,84.9,0)" xlink:href="#U"/><use transform="matrix(0.05,0,0,0.05,93.9,0)" xlink:href="#aa"/><use transform="matrix(0.05,0,0,0.05,103.9,0)" xlink:href="#Z"/><use transform="matrix(0.05,0,0,0.05,113.9,0)" xlink:href="#ad"/><use transform="matrix(0.05,0,0,0.05,122.9,0)" xlink:href="#T"/></g><path d="M137 0h-34L2-248h35l83 218 83-218h36" id="aD"/><g id="K"><use transform="matrix(0.05,0,0,0.05,0,0)" xlink:href="#aD"/><use transform="matrix(0.05,0,0,0.05,11.35,0)" xlink:href="#aC"/><use transform="matrix(0.05,0,0,0.05,21.35,0)" xlink:href="#am"/><use transform="matrix(0.05,0,0,0.05,25.3,0)" xlink:href="#Z"/><use transform="matrix(0.05,0,0,0.05,35.3,0)" xlink:href="#T"/><use transform="matrix(0.05,0,0,0.05,45.3,0)" xlink:href="#S"/><use transform="matrix(0.05,0,0,0.05,51.25,0)" xlink:href="#aa"/><use transform="matrix(0.05,0,0,0.05,61.25,0)" xlink:href="#aq"/><use transform="matrix(0.05,0,0,0.05,71.25,0)" xlink:href="#as"/><use transform="matrix(0.05,0,0,0.05,75.2,0)" xlink:href="#am"/><use transform="matrix(0.05,0,0,0.05,79.15,0)" xlink:href="#as"/><use transform="matrix(0.05,0,0,0.05,83.10000000000001,0)" xlink:href="#Y"/><use transform="matrix(0.05,0,0,0.05,88.10000000000001,0)" xlink:href="#ak"/></g><path d="M101-234c-31-9-42 10-38 44h38v23H63V0H32v-167H5v-23h27c-7-52 17-82 69-68v24" id="aE"/><g id="L"><use transform="matrix(0.05,0,0,0.05,0,0)" xlink:href="#aD"/><use transform="matrix(0.05,0,0,0.05,11,0)" xlink:href="#T"/><use transform="matrix(0.05,0,0,0.05,21,0)" xlink:href="#S"/><use transform="matrix(0.05,0,0,0.05,26.950000000000003,0)" xlink:href="#as"/><use transform="matrix(0.05,0,0,0.05,30.899999999999995,0)" xlink:href="#aE"/><use transform="matrix(0.05,0,0,0.05,35.9,0)" xlink:href="#as"/><use transform="matrix(0.05,0,0,0.05,39.85,0)" xlink:href="#ad"/><use transform="matrix(0.05,0,0,0.05,48.85,0)" xlink:href="#aa"/><use transform="matrix(0.05,0,0,0.05,58.85,0)" xlink:href="#Y"/><use transform="matrix(0.05,0,0,0.05,63.85,0)" xlink:href="#as"/><use transform="matrix(0.05,0,0,0.05,67.8,0)" xlink:href="#X"/><use transform="matrix(0.05,0,0,0.05,77.8,0)" xlink:href="#Z"/></g></defs></g></svg>

